<svg xmlns="http://www.w3.org/2000/svg" viewBox="0 0 3208.98 502.04"><defs><style>.cls-1{fill:#e4192d;}</style></defs><title>logo_1</title><g id="Layer_2" data-name="Layer 2"><g id="Layer_1-2" data-name="Layer 1"><polygon class="cls-1" points="595.97 167 414.06 167 343.17 0 525.08 0 595.97 167"/><polygon class="cls-1" points="253.07 502.04 71.16 502.04 0 334.4 181.91 334.4 253.07 502.04"/><polygon class="cls-1" points="495.63 502.04 313.71 502.04 242.55 334.4 171.49 167 100.61 0 282.53 0 353.42 167 424.47 334.4 495.63 502.04"/><path d="M921.61,172.56A78.51,78.51,0,0,1,951,203.7q10.71,20,10.71,46.21,0,25.79-11.5,45.42a78.81,78.81,0,0,1-31.73,30.34q-20.23,10.71-45.22,10.71a78.46,78.46,0,0,1-34.11-7.74,69.62,69.62,0,0,1-26.18-20.82V411.34H776V165.42h32.13l3.17,27.76a98.59,98.59,0,0,1,30.34-23A85.21,85.21,0,0,1,880,161.45,79.88,79.88,0,0,1,921.61,172.56ZM894.84,299.29a56.69,56.69,0,0,0,21.22-20.23A53.78,53.78,0,0,0,924,250.3a59,59,0,0,0-7.34-29.35,54.41,54.41,0,0,0-48.19-28.16q-21,0-35.9,11.7T812.94,236v27.37a49.29,49.29,0,0,0,18,31.14q14.87,12.1,35.1,12.1A58.5,58.5,0,0,0,894.84,299.29Z"/><path d="M1128.26,290.36l17.06,27.37A114.67,114.67,0,0,1,1117,331.41a95.58,95.58,0,0,1-29.55,5q-27.37,0-47.79-11.3a79.32,79.32,0,0,1-31.53-31.14Q997,274.1,997,249.11a83.89,83.89,0,0,1,12.1-44.23,87.82,87.82,0,0,1,33.12-31.73,93.06,93.06,0,0,1,46-11.7q32.13,0,53.75,18.84t29.55,52.55l-130.1,45.61a51.58,51.58,0,0,0,19.24,19.24,54.36,54.36,0,0,0,27.57,6.94Q1108.82,304.64,1128.26,290.36Zm-80.12-83.69q-14.68,15.87-14.68,40.46a78.38,78.38,0,0,0,.4,9.12l95.59-35.3a54.62,54.62,0,0,0-16.86-21.82q-10.91-8.33-27.17-8.33Q1062.81,190.8,1048.14,206.67Z"/><path d="M1363.06,172.56a78.51,78.51,0,0,1,29.35,31.14q10.71,20,10.71,46.21,0,25.79-11.5,45.42a78.81,78.81,0,0,1-31.73,30.34q-20.23,10.71-45.22,10.71a78.46,78.46,0,0,1-34.11-7.74,69.62,69.62,0,0,1-26.18-20.82V411.34H1217.5V165.42h32.13l3.17,27.76a98.59,98.59,0,0,1,30.34-23,85.21,85.21,0,0,1,38.28-8.73A79.88,79.88,0,0,1,1363.06,172.56Zm-26.77,126.73a56.69,56.69,0,0,0,21.22-20.23,53.78,53.78,0,0,0,7.93-28.76,59,59,0,0,0-7.34-29.35,54.41,54.41,0,0,0-48.19-28.16q-21,0-35.9,11.7T1254.38,236v27.37a49.29,49.29,0,0,0,18,31.14q14.87,12.1,35.1,12.1A58.5,58.5,0,0,0,1336.29,299.29Z"/><path d="M1598.27,172.56a78.51,78.51,0,0,1,29.35,31.14q10.71,20,10.71,46.21,0,25.79-11.5,45.42a78.81,78.81,0,0,1-31.73,30.34q-20.23,10.71-45.22,10.71a78.46,78.46,0,0,1-34.11-7.74,69.62,69.62,0,0,1-26.18-20.82V411.34H1452.7V165.42h32.13l3.17,27.76a98.59,98.59,0,0,1,30.34-23,85.21,85.21,0,0,1,38.28-8.73A79.88,79.88,0,0,1,1598.27,172.56Zm-26.77,126.73a56.69,56.69,0,0,0,21.22-20.23,53.78,53.78,0,0,0,7.93-28.76,59,59,0,0,0-7.34-29.35,54.41,54.41,0,0,0-48.19-28.16q-21,0-35.9,11.7T1489.59,236v27.37a49.29,49.29,0,0,0,18,31.14q14.87,12.1,35.1,12.1A58.5,58.5,0,0,0,1571.49,299.29Z"/><path d="M1804.91,290.36,1822,317.73a114.67,114.67,0,0,1-28.36,13.68,95.58,95.58,0,0,1-29.55,5q-27.37,0-47.79-11.3a79.32,79.32,0,0,1-31.53-31.14q-11.11-19.83-11.11-44.82a83.89,83.89,0,0,1,12.1-44.23,87.82,87.82,0,0,1,33.12-31.73,93.06,93.06,0,0,1,46-11.7q32.13,0,53.75,18.84t29.55,52.55L1718,278.46a51.58,51.58,0,0,0,19.24,19.24,54.36,54.36,0,0,0,27.57,6.94Q1785.47,304.64,1804.91,290.36Zm-80.12-83.69q-14.68,15.87-14.68,40.46a78.38,78.38,0,0,0,.4,9.12l95.59-35.3a54.62,54.62,0,0,0-16.86-21.82q-10.91-8.33-27.17-8.33Q1739.46,190.8,1724.79,206.67Z"/><path d="M1947.89,183.27a91.69,91.69,0,0,1,24.79-15.87q13.09-5.55,23-5.95l-1.59,36.89a60.42,60.42,0,0,0-32.33,7.14,57.47,57.47,0,0,0-22.61,22,58.94,58.94,0,0,0-8.13,29.95v75h-36.89V168.2h32.92l2.78,38.87A72.9,72.9,0,0,1,1947.89,183.27Z"/><path d="M2055,329.63A64.3,64.3,0,0,1,2028.21,311l15.87-21.42a78.65,78.65,0,0,0,20.82,14.68,50.23,50.23,0,0,0,21.62,5.16q13.09,0,21.42-5.16t8.33-15.87q0-8.33-5.16-13.49a31.84,31.84,0,0,0-11.7-7.54q-6.54-2.38-22-7.14-42-13.48-42-48,0-20.62,15.27-35.3t42.64-14.68q17.45,0,30.94,4.36a75.51,75.51,0,0,1,25,13.88l-14.68,22.61a45.14,45.14,0,0,0-16.06-10.71A55.81,55.81,0,0,0,2100,188q-11.11,0-19,5.35T2073,207.86a16.59,16.59,0,0,0,5.16,12.49,32.76,32.76,0,0,0,10.71,7.14q5.55,2.19,21.82,7.34,20.23,6.75,31.53,17.45t11.3,29q0,23.8-16.66,39.27T2089.69,336A95.7,95.7,0,0,1,2055,329.63Z"/><path d="M2345.12,175.53q15.07,13.68,15.47,35.5V332.4H2323.3V223.73q-.8-13.88-8.33-21.82t-22.61-8.33a44.38,44.38,0,0,0-25.78,7.93q-11.51,7.94-18,22.21a75.26,75.26,0,0,0-6.54,31.73V332.4h-36.89V25h36.09V197.94a68.76,68.76,0,0,1,26.38-26.18q17.25-9.91,39.46-9.92Q2330,161.85,2345.12,175.53Z"/><path d="M2593,168.2V332.4h-36.89v-27q-8.73,11.51-25.38,21.22t-37.68,9.72q-23.41,0-42.24-10.11a73.52,73.52,0,0,1-29.75-29.55q-10.91-19.43-10.91-46.41t11.3-47A79.91,79.91,0,0,1,2452,172.36a84.93,84.93,0,0,1,42.64-10.91q21,0,36.49,9.12a74.37,74.37,0,0,1,25,23.8l2.78-26.18Zm-55.33,126.33q14.47-11.3,18.44-30.74V231.26a50.63,50.63,0,0,0-19.83-28.36A57.39,57.39,0,0,0,2501.79,192a53.82,53.82,0,0,0-27.17,7.14,52.49,52.49,0,0,0-19.83,20,57.84,57.84,0,0,0-7.34,29.15,57,57,0,0,0,7.54,29,57.57,57.57,0,0,0,20.23,20.82,52.34,52.34,0,0,0,27.76,7.73Q2523.21,305.83,2537.68,294.53Z"/><path d="M2828.62,25V332.4h-37.28V306.62a84.07,84.07,0,0,1-29.15,21.81,89.62,89.62,0,0,1-37.88,7.93,79.84,79.84,0,0,1-41.65-11.11,77,77,0,0,1-29.15-31.14q-10.51-20-10.51-46.21,0-26.57,11.11-46.21a74.79,74.79,0,0,1,30.54-29.95q19.43-10.31,44-10.31a86.84,86.84,0,0,1,35.9,7.73q17.25,7.73,27.17,21.22V25Zm-56.52,268.13q14.87-11.5,19.24-30.94V231.26a51.81,51.81,0,0,0-20.23-29.15,58.3,58.3,0,0,0-35.3-11.3,55,55,0,0,0-48,27.57,59.77,59.77,0,0,0,0,58.11A56,56,0,0,0,2708,297.1a53.36,53.36,0,0,0,27.76,7.54Q2757.22,304.64,2772.09,293.14Z"/><path d="M3009.48,290.36l17.06,27.37a114.67,114.67,0,0,1-28.36,13.68,95.58,95.58,0,0,1-29.55,5q-27.37,0-47.79-11.3a79.32,79.32,0,0,1-31.53-31.14q-11.11-19.83-11.11-44.82a83.89,83.89,0,0,1,12.1-44.23,87.82,87.82,0,0,1,33.12-31.73,93.06,93.06,0,0,1,46-11.7q32.13,0,53.75,18.84t29.55,52.55l-130.1,45.61a51.58,51.58,0,0,0,19.24,19.24,54.36,54.36,0,0,0,27.57,6.94Q2990,304.64,3009.48,290.36Zm-80.12-83.69q-14.68,15.87-14.68,40.46a78.38,78.38,0,0,0,.4,9.12l95.59-35.3a54.62,54.62,0,0,0-16.86-21.82q-10.91-8.33-27.17-8.33Q2944,190.8,2929.36,206.67Z"/><path d="M3110.42,329.63A64.3,64.3,0,0,1,3083.65,311l15.87-21.42a78.65,78.65,0,0,0,20.82,14.68A50.23,50.23,0,0,0,3142,309.4q13.09,0,21.42-5.16t8.33-15.87q0-8.33-5.16-13.49a31.84,31.84,0,0,0-11.7-7.54q-6.54-2.38-22-7.14-42-13.48-42-48,0-20.62,15.27-35.3t42.64-14.68q17.45,0,30.94,4.36a75.51,75.51,0,0,1,25,13.88l-14.68,22.61a45.14,45.14,0,0,0-16.06-10.71,55.81,55.81,0,0,0-18.44-4.36q-11.11,0-19,5.35t-7.93,14.48a16.59,16.59,0,0,0,5.16,12.49,32.76,32.76,0,0,0,10.71,7.14q5.55,2.19,21.82,7.34,20.23,6.75,31.53,17.45t11.3,29q0,23.8-16.66,39.27T3145.12,336A95.7,95.7,0,0,1,3110.42,329.63Z"/></g></g></svg>