<svg xmlns="http://www.w3.org/2000/svg" xmlns:xlink="http://www.w3.org/1999/xlink" width="24" height="24" viewBox="0 0 24 24"><defs><style>.a{fill:#fff;stroke:#707070;}.b{clip-path:url(#a);}</style><clipPath id="a"><path class="a" d="M0,0H24V24H0Z" transform="translate(1254 361)"/></clipPath></defs><g class="b" transform="translate(-1254 -361)"><g transform="translate(1254 361.91)"><path d="M2.612,25.158h22.3a.838.838,0,0,0,.848-.848V5.4a.838.838,0,0,0-.848-.848h-4.2V3.824a.848.848,0,1,0-1.7,0v.724H8.648V3.824a.848.848,0,1,0-1.7,0v.724H2.612a.838.838,0,0,0-.848.848V24.331a.847.847,0,0,0,.848.827ZM3.459,6.243H6.953V6.7a.848.848,0,0,0,1.7,0V6.243H19.025V6.7a.848.848,0,0,0,1.7,0V6.243h3.37V8.434H3.459V6.243Zm0,3.886h20.61V23.483H3.459V10.129Z" transform="translate(-1.764 -2.977)"/><path d="M21.561,17.7H9.364a.848.848,0,1,0,0,1.7h12.2a.848.848,0,1,0,0-1.7Z" transform="translate(-3.452 -6.656)"/><path d="M15.463,23.152h-6.1a.848.848,0,0,0,0,1.7h6.1a.848.848,0,0,0,0-1.7Z" transform="translate(-3.452 -8.021)"/></g></g></svg>