<svg xmlns="http://www.w3.org/2000/svg" xmlns:xlink="http://www.w3.org/1999/xlink" width="32" height="32" viewBox="0 0 32 32"><defs><style>.a{fill:#fff;stroke:#707070;}.b{clip-path:url(#a);}</style><clipPath id="a"><rect class="a" width="32" height="32" transform="translate(1472 32)"/></clipPath></defs><g class="b" transform="translate(-1472 -32)"><g transform="translate(1472 32)"><path d="M29.239,26.991l-2.291-3.816a11.343,11.343,0,0,1-1.615-5.832V14A9.333,9.333,0,0,0,6.667,14v3.343a11.343,11.343,0,0,1-1.615,5.832L2.761,26.991A.666.666,0,0,0,3.333,28H28.667a.666.666,0,0,0,.572-1.009ZM4.511,26.667,6.195,23.86A12.664,12.664,0,0,0,8,17.343V14a8,8,0,0,1,16,0v3.343a12.676,12.676,0,0,0,1.8,6.517l1.685,2.807H4.511Z"/><path d="M16,0a2.669,2.669,0,0,0-2.667,2.667V5.333a.667.667,0,0,0,1.333,0V2.667a1.333,1.333,0,0,1,2.667,0V5.333a.667.667,0,0,0,1.333,0V2.667A2.669,2.669,0,0,0,16,0Z"/><path d="M18.885,27a.667.667,0,0,0-1.152.675,2,2,0,1,1-3.464,0A.667.667,0,0,0,13.117,27a3.335,3.335,0,1,0,5.768,0Z"/></g></g></svg>